<svg width="23" height="23" viewBox="0 0 23 23" fill="none" xmlns="http://www.w3.org/2000/svg">
<g id="et:twitter" clip-path="url(#clip0_29483_303)">
<g id="Group">
<path id="Vector" d="M11.7997 -0.0238037C5.611 -0.0238037 0.575195 5.0106 0.575195 11.2C0.575195 17.3894 5.611 22.4238 11.7997 22.4238C17.9884 22.4238 23.0242 17.3894 23.0242 11.2C23.0242 5.0106 17.9884 -0.0238037 11.7997 -0.0238037ZM11.7997 21.6762C6.0233 21.6762 1.3242 16.9764 1.3242 11.2C1.3242 5.4236 6.0233 0.723796 11.7997 0.723796C17.5761 0.723796 22.2752 5.4236 22.2752 11.2C22.2752 16.9764 17.5761 21.6762 11.7997 21.6762Z" fill="white"/>
<path id="Vector_2" d="M17.9559 7.73222C18.0335 7.5885 18.0975 7.4378 18.147 7.28212C18.1699 7.20991 18.1703 7.13244 18.1483 7.05996C18.1263 6.98748 18.0828 6.92339 18.0235 6.87614C17.9643 6.8289 17.8922 6.80073 17.8166 6.79535C17.741 6.78997 17.6656 6.80764 17.6003 6.84602C17.2416 7.05911 16.8533 7.21786 16.4481 7.31712C15.9562 6.87316 15.3173 6.62704 14.6547 6.62622C14.2947 6.6265 13.9384 6.69946 13.6073 6.84074C13.2762 6.98202 12.977 7.18871 12.7277 7.44841C12.4784 7.70811 12.2841 8.01548 12.1565 8.35209C12.0288 8.68869 11.9705 9.04761 11.9849 9.40732C10.4106 9.20914 8.97302 8.41251 7.97038 7.18272C7.93197 7.13613 7.88287 7.0995 7.82727 7.07594C7.77167 7.05238 7.71121 7.0426 7.65101 7.04741C7.59082 7.05222 7.53267 7.07148 7.48152 7.10357C7.43037 7.13566 7.38771 7.17962 7.35718 7.23172C7.1276 7.62577 7.00281 8.07207 6.99472 8.52805C6.98664 8.98403 7.09552 9.43448 7.31098 9.83642C7.25814 9.84534 7.20737 9.86384 7.16118 9.89102C7.10459 9.92711 7.05799 9.97687 7.02569 10.0357C6.99339 10.0946 6.97644 10.1606 6.97638 10.2277C6.97638 11.0222 7.32988 11.7516 7.89968 12.2472L7.87518 12.2717C7.83217 12.3204 7.80257 12.3794 7.78931 12.443C7.77606 12.5066 7.7796 12.5725 7.79958 12.6343C7.9184 13.005 8.11679 13.3452 8.38087 13.6312C8.64494 13.9171 8.96833 14.1419 9.32838 14.2898C8.5889 14.6506 7.76133 14.7912 6.94418 14.6951C6.86019 14.6866 6.77572 14.7061 6.70403 14.7507C6.63233 14.7953 6.57745 14.8624 6.54798 14.9415C6.51969 15.0212 6.51916 15.1082 6.54648 15.1882C6.57379 15.2683 6.62736 15.3367 6.69848 15.3825C7.80939 16.0955 9.10176 16.4743 10.4218 16.4738C14.7478 16.4738 17.3336 12.9598 17.3336 9.56272L17.3329 9.44792C17.7521 9.12061 18.1163 8.72832 18.4116 8.28592C18.4563 8.21904 18.4783 8.13954 18.4743 8.05919C18.4703 7.97884 18.4405 7.90191 18.3894 7.83979C18.3383 7.77767 18.2685 7.73367 18.1904 7.7143C18.1124 7.69492 18.0301 7.70121 17.9559 7.73222ZM16.7344 8.96072C16.6836 8.99725 16.6428 9.04592 16.6156 9.10229C16.5885 9.15866 16.5759 9.22093 16.579 9.28342C16.5832 9.37582 16.5853 9.46962 16.5853 9.56202C16.5853 12.5916 14.2802 15.7255 10.4225 15.7255C9.73446 15.7258 9.05128 15.6104 8.40158 15.3839C9.1797 15.2348 9.91067 14.9011 10.5331 14.4109C10.5937 14.3631 10.638 14.2978 10.6601 14.2239C10.6821 14.15 10.6808 14.071 10.6563 13.9979C10.6318 13.9247 10.5853 13.8609 10.5231 13.8152C10.461 13.7695 10.3862 13.744 10.3091 13.7424C10.0073 13.7367 9.71102 13.66 9.44425 13.5188C9.17747 13.3775 8.94764 13.1755 8.77328 12.929C8.95038 12.9171 9.12398 12.8877 9.29268 12.8422C9.37433 12.8204 9.44616 12.7715 9.49646 12.7036C9.54675 12.6356 9.57254 12.5527 9.56962 12.4682C9.56669 12.3837 9.53523 12.3027 9.48036 12.2385C9.42549 12.1742 9.35045 12.1304 9.26748 12.1142C8.9266 12.0449 8.61098 11.8842 8.35439 11.6493C8.0978 11.4144 7.9099 11.1142 7.81078 10.7807C7.99698 10.8276 8.18808 10.8549 8.37918 10.8612C8.54368 10.8605 8.69628 10.7597 8.74738 10.6015C8.79848 10.4433 8.73828 10.269 8.59898 10.1766C8.26961 9.95718 8.01601 9.64141 7.87281 9.27244C7.72961 8.90348 7.70379 8.49931 7.79888 8.11512C9.01481 9.36274 10.6567 10.1057 12.3965 10.1955C12.5197 10.1962 12.6275 10.1521 12.7024 10.0618C12.7773 9.97152 12.806 9.85182 12.7794 9.73702C12.6836 9.32472 12.7265 8.89236 12.9012 8.50685C13.076 8.12134 13.3729 7.80417 13.7461 7.60443C14.1193 7.40469 14.5479 7.33351 14.9656 7.40192C15.3833 7.47032 15.7668 7.67449 16.0568 7.98282C16.1002 8.02919 16.1548 8.06374 16.2153 8.08321C16.2758 8.10268 16.3402 8.10643 16.4026 8.09412C16.5181 8.07102 16.6322 8.04442 16.7449 8.01362C16.6941 8.05165 16.6413 8.08694 16.5867 8.11932C16.5141 8.16379 16.4588 8.23165 16.43 8.31174C16.4011 8.39182 16.4004 8.47935 16.428 8.55989C16.4555 8.64043 16.5097 8.70918 16.5815 8.75482C16.6534 8.80045 16.7387 8.82024 16.8233 8.81092L16.9507 8.79482C16.8805 8.85261 16.8084 8.90794 16.7344 8.96072Z" fill="white"/>
</g>
</g>
<defs>
<clipPath id="clip0_29483_303">
<rect width="22.4" height="22.4" fill="white" transform="translate(0.599609)"/>
</clipPath>
</defs>
</svg>
